<svg xmlns="http://www.w3.org/2000/svg" width="74" height="74" viewBox="0 0 74 74"><defs><style>.a{fill:#fff;}.b{fill:#004986;}</style></defs><g transform="translate(-684 -1417)"><rect class="a" width="74" height="74" transform="translate(684 1417)"/><g transform="translate(-208.735 -1146.401)"><path class="b" d="M968.951,2590.911V2609.6a10.511,10.511,0,0,0,10.51,10.511h18.692a10.511,10.511,0,0,0,10.51-10.511v-18.691a10.51,10.51,0,0,0-10.51-10.51H979.461A10.51,10.51,0,0,0,968.951,2590.911Zm28.619,24.779-2.144-5.114h-13.2l-2.185,5.114h-6.186l12.616-30.865H992.7l-.782,1.915-.462,1.131-2.674,6.547-1.815,4.449-2.677,6.555h9.031l-3.538-8.576,3.138-7.65,10.831,26.495Z" transform="translate(-59.267)"/></g></g></svg>