<svg xmlns="http://www.w3.org/2000/svg" width="74" height="74" viewBox="0 0 74 74"><defs><style>.a{fill:#fff;}.b{fill:#d80c1b;}.c{fill:#051a2f;}</style></defs><g transform="translate(-684 -1417)"><rect class="a" width="74" height="74" transform="translate(684 1417)"/><g transform="translate(19.41 -1574.5)"><path class="b" d="M719.7,3011.213l-10.823,9.483a6.113,6.113,0,0,0-5.724-3.966h-9.137v16.982l-8.584,7.529a17.953,17.953,0,0,1-1.841-7.958v-22.07a37.819,37.819,0,0,1,36.109,0" transform="translate(0)"/><path class="c" d="M739.305,3060.078v22.07a18.059,18.059,0,0,1-33.4,9.52c0-.005,0-.008-.01-.01-.305-.5-.595-1.024-.853-1.552l8.584-7.529v7.555h16.625l-6.919-11.4a6.113,6.113,0,0,0,5.544-6.086v-.944a6.132,6.132,0,0,0-.388-2.143Z" transform="translate(-19.606 -48.864)"/></g></g></svg>